<?xml version="1.0" encoding="utf-8"?>
<!-- Generator: Adobe Illustrator 18.0.0, SVG Export Plug-In . SVG Version: 6.00 Build 0)  -->
<!DOCTYPE svg PUBLIC "-//W3C//DTD SVG 1.1//EN" "http://www.w3.org/Graphics/SVG/1.1/DTD/svg11.dtd">
<svg version="1.1" id="Layer_1" xmlns="http://www.w3.org/2000/svg" xmlns:xlink="http://www.w3.org/1999/xlink" x="0px" y="0px"
	 width="841.9px" height="595.3px" viewBox="0 0 841.9 595.3" enable-background="new 0 0 841.9 595.3" xml:space="preserve">
<g>
	<rect x="0" y="0" fill="#00568D" width="841.9" height="595.3"/>
	
		<ellipse transform="matrix(0.7071 -0.7071 0.7071 0.7071 23.0922 282.4736)" fill="#123A60" cx="352.5" cy="113.4" rx="54.2" ry="69.8"/>
	<rect x="0" y="494.4" fill="#FFFFFF" width="841.9" height="44.5"/>
	<g>
		<circle fill="#F1F2F2" cx="341.5" cy="102.3" r="54.2"/>
		
			<ellipse transform="matrix(0.7071 -0.7071 0.7071 0.7071 38.0877 246.2714)" fill="#FFFFFF" cx="316.3" cy="77.2" rx="21.7" ry="9.2"/>
		<path fill="#D1D3D4" d="M350.2,48.8c13.5,7.9,22.5,22.5,22.5,39.3c0,25.1-20.4,45.5-45.5,45.5c-16.7,0-31.4-9-39.3-22.5
			c4.2,25.8,26.6,45.5,53.5,45.5c30,0,54.2-24.3,54.2-54.2C395.7,75.3,376,53,350.2,48.8z"/>
	</g>
	<path fill="#808285" d="M190.8,494.4c52.2,25.7,111.2,26.1,157.3,0H190.8z"/>
	<g>
		<defs>
			<rect id="SVGID_15_" x="0" y="0" width="841.9" height="595.3"/>
		</defs>
		<clipPath id="SVGID_1_">
			<use xlink:href="#SVGID_15_"  overflow="visible"/>
		</clipPath>
		<g clip-path="url(#SVGID_1_)">
			<path fill="#123A60" d="M783,384.5l-2.6-2.8c-24.8-29.6,3.2-78.5,3.2-78.5l11.7-11.7c-1.4-45.8-21.1-93.3-58.4-130.6
				c-71.3-71.3-179.6-78.4-242-16c-62.4,62.4-55.2,170.8,16,242c37.3,37.3,84.8,57.1,130.6,58.4l11.7-11.7c0,0,48.8-28,78.5-3.2
				l2.8,2.6c29.2,29.2,97.5,108.3,97.5,108.3s15.6-0.4,37.3-22.1c21.7-21.7,22.1-37.3,22.1-37.3S812.2,413.8,783,384.5z"/>
			<path fill="#123A60" d="M231.8,170.8l-76.9,76.9l65.2-65.2c0,0-48.8,28-78.5,3.2l-2.8-2.6C109.6,153.9,41.3,74.8,41.3,74.8
				S25.7,75.2,4,96.9C-17.6,118.5-18,134.1-18,134.1S61,202.4,90.3,231.6l2.6,2.8c24.8,29.6-3.2,78.5-3.2,78.5L78,324.7
				c1.4,45.8,21.1,93.3,58.4,130.6c71.3,71.3,179.6,78.4,242,16c62.4-62.4,55.2-170.8-16-242C325.1,191.9,277.6,172.2,231.8,170.8z"
				/>
			<g>
				<g>
					<g>
						<path fill="#FBAE3C" d="M767.9,292.8L637.5,423.2c0,0,52.1-29.9,81.3-0.6c29.2,29.2,97.5,108.3,97.5,108.3s15.6-0.4,37.3-22.1
							c21.7-21.7,22.1-37.3,22.1-37.3s-79.1-68.2-108.3-97.5C738,344.8,767.9,292.8,767.9,292.8z"/>
						<path fill="#D99834" d="M637.5,423.2c0,0,52.1-29.9,81.3-0.6L676.6,384L637.5,423.2z"/>
						<path fill="#D99834" d="M767.9,292.8c0,0-29.9,52.1-0.6,81.3L728.7,332L767.9,292.8z"/>
						
							<rect x="771" y="444.8" transform="matrix(-0.7071 -0.7071 0.7071 -0.7071 1042.0186 1338.8177)" fill="#323033" width="54.6" height="17.5"/>
					</g>
					<path fill="#ED1C24" d="M779.6,281.1c-1.4-45.8-21.1-93.3-58.4-130.6c-71.3-71.3-179.6-78.4-242-16s-55.2,170.8,16,242
						c37.3,37.3,84.8,57.1,130.6,58.4L779.6,281.1z"/>
				</g>
				<g>
					<g>
						<path fill="#FBAE3C" d="M74,302.5l130.4-130.4c0,0-52.1,29.9-81.3,0.6S25.6,64.3,25.6,64.3S10,64.8-11.6,86.4
							s-22.1,37.3-22.1,37.3s79.1,68.2,108.3,97.5S74,302.5,74,302.5z"/>
						<path fill="#D99834" d="M204.4,172.1c0,0-52.1,29.9-81.3,0.6l42.1,38.6L204.4,172.1z"/>
						<path fill="#D99834" d="M74,302.5c0,0,29.9-52.1,0.6-81.3l38.6,42.1L74,302.5z"/>
						
							<rect x="16.3" y="132.9" transform="matrix(0.7071 0.7071 -0.7071 0.7071 112.954 10.6655)" fill="#323033" width="54.6" height="17.5"/>
					</g>
					<path fill="#262427" d="M62.3,314.2c1.4,45.8,21.1,93.3,58.4,130.6c71.3,71.3,179.6,78.4,242,16s55.2-170.8-16-242
						c-37.3-37.3-84.8-57.1-130.6-58.4L62.3,314.2z"/>
				</g>
			</g>
		</g>
	</g>
</g>
</svg>
